<svg id="Capa_1" enable-background="new 0 0 495.296 495.296" height="512" viewBox="0 0 495.296 495.296" width="512" xmlns="http://www.w3.org/2000/svg"><g><g><circle cx="210.617" cy="75.984" fill="#97c9f9" r="75.984"/><path d="m395.393 175.179c-17.049 0-30.87 13.821-30.87 30.87v-24.89c0-17.049-13.821-30.87-30.87-30.87-17.049 0-30.87 13.821-30.87 30.87v-12.468c0-17.049-13.821-30.87-30.87-30.87-17.049 0-30.87 13.821-30.87 30.87v-104.263c0-17.049-13.821-30.87-30.87-30.87-17.049 0-30.87 13.821-30.87 30.87v221.17c0 4.077-5.007 6.029-7.767 3.028l-49.419-53.744c-11.534-12.543-30.83-12.948-42.879-.898-11.698 11.698-13.628 32.443-4.289 46.098l78.959 115.448c13.252 19.377 33.398 32.968 56.327 38.001 1.86 0 3.368 1.508 3.368 3.368v52.09c0 3.483 2.823 6.306 6.306 6.306h180.283c3.483 0 6.306-2.823 6.306-6.306v-45.602c0-3.419.641-6.807 1.889-9.989l2.391-6.096c9.855-25.124 15.076-51.813 15.448-78.782l.036-31.962v-110.51c.001-17.048-13.82-30.869-30.869-30.869z" fill="#ffefe7"/><path d="m395.393 175.179c-17.049 0-30.87 13.821-30.87 30.87v-24.89c0-17.049-13.821-30.87-30.87-30.87-17.049 0-30.87 13.821-30.87 30.87v-12.468c0-17.049-13.821-30.87-30.87-30.87-17.049 0-30.87 13.821-30.87 30.87v-104.263c0-17.049-13.821-30.87-30.87-30.87-17.049 0-30.87 13.821-30.87 30.87v221.17c0 4.077-5.007 6.029-7.767 3.028l-49.419-53.744c-11.534-12.543-30.83-12.948-42.879-.898-11.698 11.698-13.628 32.443-4.289 46.098l78.959 115.448c13.252 19.377 33.398 32.968 56.327 38.001 1.86 0 3.368 1.508 3.368 3.368v52.09c0 3.483 2.823 6.306 6.306 6.306h180.283c3.483 0 6.306-2.823 6.306-6.306v-45.602c0-3.419.641-6.807 1.889-9.989l2.391-6.096c9.855-25.124 15.076-51.813 15.448-78.782l.036-31.962v-110.51c.001-17.048-13.82-30.869-30.869-30.869z" fill="#ffefe7"/><path d="m179.305 285.326c12.239 0 22.161-9.922 22.161-22.161v-200.206c0-9.295 3.45-17.696 9.04-23.787 1.753-1.907 3.716-3.586 5.848-4.994-1.996-.406-4.062-.619-6.179-.619-8.52 0-16.24 3.46-21.83 9.04-5.59 5.59-9.04 13.3-9.04 21.83z" fill="#ffe0d1"/><g id="XMLID_1_"><path d="m389.11 208.687c0-13.808 9.076-25.514 21.591-29.453-4.514-2.583-9.737-4.055-15.306-4.055-17.05 0-30.87 13.82-30.87 30.86v17.819c0 .675.547 1.221 1.221 1.221h6.971c9.054.001 16.393-7.339 16.393-16.392z" fill="#ffe0d1"/></g><g id="XMLID_2_"><path d="m345.229 152.533c-3.434-1.395-7.134-2.175-11.051-2.24-17.263-.289-31.756 13.661-31.392 31.507v47.658c12.825 0 23.222-10.397 23.222-23.222v-25.078c-.001-12.942 7.927-24.037 19.221-28.625z" fill="#ffe0d1"/></g><path d="m282.51 139.688c-3.472-1.272-7.212-1.933-11.137-1.866-16.948.292-30.327 14.145-30.327 31.537v58.498c11.731 0 21.241-9.51 21.241-21.241v-37.929c-.001-13.316 8.407-24.668 20.223-28.999z" fill="#ffe0d1"/><g><g><g><path d="m101.073 134.14c-2.805 0-5.495-1.581-6.779-4.282-8.233-17.322-12.407-35.891-12.407-55.192s4.174-37.871 12.407-55.192c1.778-3.741 6.251-5.333 9.994-3.554 3.741 1.778 5.332 6.252 3.554 9.994-7.27 15.294-10.955 31.697-10.955 48.753s3.686 33.459 10.955 48.753c1.778 3.741.187 8.215-3.554 9.994-1.04.491-2.136.726-3.215.726z" fill="#97c9f9"/></g><g><path d="m320.162 134.14c-1.079 0-2.175-.234-3.214-.728-3.741-1.778-5.333-6.252-3.555-9.993 7.269-15.295 10.955-31.698 10.955-48.753s-3.686-33.458-10.955-48.753c-1.778-3.741-.187-8.215 3.555-9.993 3.741-1.778 8.215-.187 9.993 3.555 8.233 17.323 12.407 35.892 12.407 55.192s-4.174 37.869-12.407 55.192c-1.284 2.7-3.974 4.281-6.779 4.281z" fill="#97c9f9"/></g></g></g></g><path d="m233.718 432.856c0-9.544-5.398-18.284-13.959-22.502-14.795-7.288-37.181-19.786-45.741-32.297l-80.75-118.06c-3.83-5.61-5.69-12.02-5.69-18.38 0-4.728 1.027-10.463 3.028-14.783-4.132 1.433-8.028 3.812-11.367 7.15-11.698 11.698-13.628 32.443-4.289 46.098l78.959 115.448c13.252 19.377 33.398 32.968 56.327 38.001 1.86 0 3.368 1.508 3.368 3.368v52.09c0 3.483 2.823 6.306 6.306 6.306h13.808z" fill="#ffe0d1"/></g></svg>